<?xml version="1.0" standalone="no"?>
<!DOCTYPE svg PUBLIC "-//W3C//DTD SVG 20010904//EN"
 "http://www.w3.org/TR/2001/REC-SVG-20010904/DTD/svg10.dtd">
<svg version="1.0" xmlns="http://www.w3.org/2000/svg"
 width="620.000000pt" height="620.000000pt" viewBox="0 0 620.000000 620.000000"
 preserveAspectRatio="xMidYMid meet">
<metadata>
Created by potrace 1.11, written by Peter Selinger 2001-2013
</metadata>
<g transform="translate(0.000000,620.000000) scale(0.100000,-0.100000)"
fill="#000000" stroke="none">
<path d="M10 4003 l0 -1163 920 0 920 0 0 335 0 335 -508 0 -509 0 1 815 c1
449 -1 821 -4 828 -4 10 -92 13 -412 13 l-408 0 0 -1163z"/>
<path d="M2030 4003 l0 -1163 969 0 c914 0 969 1 973 18 2 9 3 159 3 332 l-1
315 -561 3 -560 2 0 130 0 130 458 0 c357 0 458 3 461 13 2 6 3 118 3 247 l-1
235 -449 1 c-248 1 -455 2 -461 3 -11 1 -15 220 -4 222 3 1 248 2 545 3 l540
1 0 335 0 335 -957 0 -958 1 0 -1163z"/>
<path d="M4205 5161 c-3 -2 -5 -526 -5 -1163 l0 -1158 969 0 c766 0 970 3 973
13 2 6 3 156 3 332 l0 320 -560 3 -561 2 0 128 0 127 460 5 460 5 0 245 0 245
-449 1 c-248 1 -455 2 -460 3 -8 1 -13 172 -7 216 1 7 191 10 545 10 l542 0 0
335 0 335 -953 0 c-524 1 -955 -1 -957 -4z"/>
<path d="M1980 2524 c-303 -53 -478 -233 -464 -478 9 -162 88 -278 237 -350
88 -42 136 -57 300 -96 70 -16 141 -37 157 -45 36 -19 69 -53 66 -68 -11 -63
-48 -80 -164 -76 -131 6 -272 62 -407 163 -8 6 -24 -5 -51 -34 -58 -65 -145
-160 -181 -198 -26 -28 -30 -38 -22 -53 5 -11 13 -19 17 -19 4 0 26 -18 49
-38 87 -78 280 -161 434 -188 76 -13 335 -12 415 2 245 43 402 154 466 330 16
45 22 83 22 160 1 93 -2 105 -31 165 -34 68 -72 109 -142 153 -37 24 -123 62
-161 72 -75 19 -274 74 -309 85 -62 19 -113 69 -107 105 7 39 25 53 77 62 99
17 303 -49 392 -128 l34 -30 40 38 c22 20 76 72 121 114 45 42 82 82 82 87 0
16 -66 76 -128 117 -98 66 -239 121 -377 149 -61 13 -291 12 -365 -1z"/>
<path d="M0 1780 l0 -720 255 0 255 0 0 200 0 200 203 2 c111 0 207 2 212 3 6
0 32 5 58 9 27 4 79 20 116 35 192 78 292 237 293 464 1 275 -136 451 -397
510 -58 14 -148 16 -532 17 l-463 0 0 -720z m771 335 c52 -25 80 -79 80 -155
1 -120 -59 -167 -221 -173 -52 -2 -101 -2 -107 1 -10 3 -13 48 -13 179 l0 176
113 -6 c76 -3 124 -10 148 -22z"/>
<path d="M2964 2008 c2 -480 3 -495 25 -561 52 -160 145 -269 286 -336 127
-61 205 -76 385 -76 85 0 175 4 198 8 174 33 320 115 404 227 30 40 77 130 85
163 28 117 30 165 31 606 l0 461 -249 0 -248 0 -3 -482 c-3 -455 -4 -485 -22
-515 -40 -66 -154 -97 -246 -66 -48 16 -57 24 -86 68 -18 28 -19 54 -22 512
l-3 483 -269 0 -268 0 2 -492z"/>
<path d="M4589 2443 c-1 -61 -3 -154 -14 -493 -3 -113 -8 -281 -10 -375 -3
-93 -7 -248 -10 -342 l-5 -173 208 0 208 0 1 28 c1 36 13 444 18 606 2 70 5
130 7 132 2 2 46 -137 98 -309 51 -172 103 -343 115 -382 l22 -70 143 0 143 0
17 55 c44 140 74 236 76 245 6 22 117 384 134 435 21 63 19 73 25 -130 1 -63
6 -200 10 -305 4 -104 8 -215 9 -245 l1 -55 208 -3 208 -2 -6 197 c-5 185 -8
291 -20 648 -7 216 -17 516 -19 555 l-1 35 -302 3 -301 2 -10 -32 c-6 -18 -31
-96 -55 -173 -25 -77 -55 -174 -68 -215 -12 -41 -25 -78 -28 -82 -4 -4 -45
106 -92 245 l-86 252 -312 3 -311 2 -1 -57z"/>
</g>
</svg>
