<?xml version="1.0" standalone="no"?>
<!DOCTYPE svg PUBLIC "-//W3C//DTD SVG 20010904//EN"
 "http://www.w3.org/TR/2001/REC-SVG-20010904/DTD/svg10.dtd">
<svg version="1.0" xmlns="http://www.w3.org/2000/svg"
 width="800.000000pt" height="800.000000pt" viewBox="0 0 800.000000 800.000000"
 preserveAspectRatio="xMidYMid meet">
<metadata>
Created by potrace 1.11, written by Peter Selinger 2001-2013
</metadata>
<g transform="translate(0.000000,800.000000) scale(0.100000,-0.100000)"
fill="#000000" stroke="none">
<path d="M1449 6516 c-2 -2 -42 -6 -89 -10 -287 -21 -604 -126 -786 -262 -283
-211 -403 -486 -369 -848 22 -250 143 -459 345 -601 179 -126 351 -189 806
-294 307 -72 409 -115 458 -193 38 -59 9 -160 -54 -193 -45 -23 -119 -36 -205
-37 -298 -1 -635 118 -897 318 -35 27 -65 51 -68 55 -5 8 -54 -43 -246 -256
-94 -105 -128 -142 -257 -280 l-56 -60 37 -38 c139 -144 379 -295 622 -390
109 -43 301 -99 380 -112 19 -3 46 -8 60 -10 14 -3 34 -7 45 -9 19 -4 119 -16
180 -22 17 -2 111 -4 210 -4 166 -1 222 2 345 16 629 72 1042 367 1145 818 71
310 13 594 -160 784 -155 170 -377 274 -845 391 -403 102 -525 155 -576 253
-18 35 -18 101 1 138 91 176 741 41 1014 -210 30 -28 56 -50 58 -50 3 0 10 6
17 13 7 6 77 73 156 147 193 182 207 195 288 273 l72 69 -25 33 c-23 30 -82
86 -150 143 -85 73 -321 207 -471 269 -131 55 -342 112 -504 138 -90 15 -470
31 -481 21z"/>
<path d="M3352 4884 l0 -1554 549 0 549 0 0 1553 0 1554 -549 0 -549 0 0
-1553z"/>
<path d="M4903 4883 l0 -1554 856 4 c471 2 867 6 881 10 14 3 48 9 75 12 28 4
59 9 70 10 11 2 60 12 108 24 488 116 819 407 967 850 28 83 78 301 78 341 0
8 3 44 7 80 16 139 12 385 -10 560 -25 202 -106 439 -206 599 -205 328 -581
544 -1039 597 -30 3 -64 9 -75 11 -11 3 -401 7 -866 8 l-846 3 0 -1555z m1550
736 c207 -49 293 -173 332 -481 4 -26 8 -121 9 -211 4 -263 -20 -436 -79 -564
-45 -100 -106 -158 -203 -197 -61 -23 -131 -30 -332 -30 l-175 -1 -3 747 -2
747 37 3 c88 7 369 -1 416 -13z"/>
<path d="M3896 2857 c-209 -21 -373 -127 -431 -282 -14 -35 -19 -75 -19 -135
0 -101 28 -169 96 -241 62 -65 118 -100 302 -190 95 -46 178 -93 197 -111 61
-61 70 -121 27 -178 -29 -39 -69 -54 -126 -47 -107 14 -114 19 -165 114 -92
172 -106 196 -115 202 -6 3 -48 5 -95 3 l-85 -3 -7 -42 c-4 -23 -9 -51 -11
-62 -10 -54 -14 -98 -15 -180 -1 -49 -1 -95 0 -101 3 -27 181 -83 346 -109
109 -17 288 -12 368 9 140 38 247 118 299 224 31 62 33 73 32 167 0 86 -4 108
-26 156 -54 118 -133 179 -385 300 -187 89 -229 117 -249 164 -17 42 -3 98 37
138 27 27 33 29 87 24 31 -3 74 -12 96 -19 37 -13 39 -16 86 -138 l47 -125
102 -2 c117 -2 113 -4 126 98 4 30 8 56 10 59 2 3 6 57 10 121 l6 116 -78 21
c-43 12 -91 24 -108 27 -16 3 -41 7 -54 10 -28 5 -141 16 -191 18 -19 1 -70
-2 -114 -6z"/>
<path d="M2548 2834 c-2 -1 -102 -4 -223 -5 -121 -2 -228 -5 -237 -7 -14 -3
-18 -15 -18 -57 l0 -53 70 -12 c39 -6 70 -15 71 -18 1 -4 2 -229 3 -501 0
-320 -3 -498 -9 -503 -5 -4 -39 -27 -75 -51 -64 -43 -69 -52 -55 -94 3 -10 92
-13 400 -13 l395 0 0 54 0 54 -42 8 c-24 4 -45 8 -48 9 -3 1 -38 7 -77 14 -67
12 -73 15 -74 37 0 13 0 62 0 109 0 47 0 103 0 124 l1 39 131 1 c220 1 360 49
468 160 122 126 140 327 44 479 -61 97 -138 155 -266 199 -66 24 -87 26 -264
28 -106 1 -194 1 -195 -1z m319 -227 c53 -79 66 -252 25 -337 -34 -69 -80 -95
-170 -94 -40 0 -77 5 -83 11 -10 10 -13 133 -10 386 l1 44 98 15 c53 8 102 13
107 11 6 -2 20 -18 32 -36z"/>
<path d="M73 2822 c-21 -3 -23 -9 -23 -57 l0 -54 73 -11 74 -12 -1 -500 -1
-501 -65 -39 c-87 -52 -100 -67 -93 -100 l5 -28 589 0 588 0 6 43 c3 23 8 58
11 77 2 19 7 115 10 213 4 165 4 177 -13 178 -10 0 -27 2 -38 5 -11 2 -57 6
-102 10 l-82 6 -46 -146 c-26 -80 -50 -148 -54 -150 -3 -2 -33 -7 -66 -10 -33
-3 -76 -8 -95 -11 -19 -2 -59 -7 -87 -10 l-53 -6 0 468 1 468 82 50 c76 47 82
52 79 80 -2 17 -6 32 -7 34 -5 4 -661 7 -692 3z"/>
<path d="M1288 2790 c-7 -73 -4 -76 76 -90 l73 -12 0 -504 c0 -277 -4 -504 -8
-504 -14 0 -148 -84 -153 -96 -2 -5 -2 -22 1 -37 l5 -27 369 0 c288 0 369 3
370 13 0 6 2 31 2 53 l2 41 -65 12 c-36 7 -75 14 -87 17 l-23 4 0 498 0 497
75 43 c41 24 79 51 83 59 11 19 3 63 -12 64 -6 0 -167 1 -358 2 l-346 2 -4
-35z"/>
<path d="M4619 2822 l-36 -3 -2 -53 -1 -53 75 -12 75 -12 0 -322 c1 -349 2
-367 30 -472 26 -98 74 -179 145 -250 48 -47 152 -115 185 -121 3 0 12 -4 20
-7 35 -16 151 -34 231 -36 276 -6 472 126 533 360 24 94 28 172 28 500 l0 315
46 24 c25 14 62 37 84 52 33 25 37 32 32 56 -4 15 -8 29 -10 31 -6 6 -574 4
-580 -2 -4 -3 -7 -28 -7 -54 l-1 -48 79 -15 78 -15 0 -340 c-1 -412 -5 -461
-45 -557 -17 -39 -29 -52 -69 -72 -41 -20 -62 -24 -118 -21 -80 3 -122 22
-172 77 -69 75 -73 105 -74 517 l0 364 83 51 c79 49 82 52 76 81 -3 16 -8 32
-10 34 -4 4 -623 7 -675 3z"/>
<path d="M6164 2792 l-40 -3 0 -46 c1 -26 6 -48 11 -49 6 -2 43 -13 83 -25
l73 -21 -6 -292 c-3 -160 -8 -374 -10 -476 l-3 -185 -64 -40 c-110 -68 -111
-69 -103 -104 l7 -31 302 0 302 0 -1 47 c0 51 7 46 -106 78 l-56 16 -2 220 c0
121 -3 239 -5 262 -12 97 -16 211 -8 197 5 -8 75 -200 157 -426 l147 -411 37
7 c20 5 58 11 84 14 79 11 151 26 158 34 3 4 23 52 43 107 21 55 44 114 51
130 7 17 29 75 50 130 20 55 43 114 50 130 7 17 35 90 61 162 27 73 52 133 57
133 4 0 5 -10 3 -22 -11 -52 -20 -227 -21 -427 -1 -200 -2 -215 -20 -225 -80
-45 -145 -90 -145 -99 0 -7 3 -22 6 -34 l6 -23 359 0 c387 0 361 -4 361 50 0
11 0 26 -1 33 -1 7 -38 23 -86 36 -47 13 -85 26 -86 30 0 6 -5 256 -13 699
l-4 253 56 28 c86 44 122 80 115 114 -4 19 -12 27 -27 27 -159 4 -527 1 -535
-4 -6 -4 -11 -11 -11 -17 0 -5 -15 -48 -34 -97 -19 -48 -81 -213 -139 -367
-141 -374 -144 -383 -151 -365 -3 8 -25 71 -50 140 -24 69 -80 226 -124 350
-44 124 -91 255 -104 293 -22 65 -24 67 -58 68 -196 2 -533 3 -566 1z"/>
</g>
</svg>
